<?xml version="1.0" encoding="UTF-8" standalone="no"?>
<!-- Created with Inkscape (http://www.inkscape.org/) -->

<svg
   xmlns:osb="http://www.openswatchbook.org/uri/2009/osb"
   xmlns:dc="http://purl.org/dc/elements/1.1/"
   xmlns:cc="http://creativecommons.org/ns#"
   xmlns:rdf="http://www.w3.org/1999/02/22-rdf-syntax-ns#"
   xmlns:svg="http://www.w3.org/2000/svg"
   xmlns="http://www.w3.org/2000/svg"
   xmlns:sodipodi="http://sodipodi.sourceforge.net/DTD/sodipodi-0.dtd"
   xmlns:inkscape="http://www.inkscape.org/namespaces/inkscape"
   inkscape:version="0.91 r13725"
   version="1.1"
   id="svg3430"
   viewBox="0 0 505.27069 80.998534"
   height="22.859587mm"
   width="142.59862mm"
   sodipodi:docname="tutoriais-opengl-logo2.svg">
  <defs
     id="defs3432">
    <marker
       inkscape:isstock="true"
       style="overflow:visible"
       id="marker8757"
       refX="0"
       refY="0"
       orient="auto"
       inkscape:stockid="Arrow1Lstart">
      <path
         transform="matrix(0.8,0,0,0.8,10,0)"
         style="fill:#800080;fill-opacity:0;fill-rule:evenodd;stroke:#000000;stroke-width:1pt;stroke-opacity:1"
         d="M 0,0 5,-5 -12.5,0 5,5 0,0 Z"
         id="path8759"
         inkscape:connector-curvature="0" />
    </marker>
    <marker
       inkscape:isstock="true"
       style="overflow:visible"
       id="marker8663"
       refX="0"
       refY="0"
       orient="auto"
       inkscape:stockid="Arrow1Lstart">
      <path
         transform="matrix(0.8,0,0,0.8,10,0)"
         style="fill:#800080;fill-opacity:0;fill-rule:evenodd;stroke:#000000;stroke-width:1pt;stroke-opacity:1"
         d="M 0,0 5,-5 -12.5,0 5,5 0,0 Z"
         id="path8665"
         inkscape:connector-curvature="0" />
    </marker>
    <marker
       inkscape:isstock="true"
       style="overflow:visible"
       id="marker8575"
       refX="0"
       refY="0"
       orient="auto"
       inkscape:stockid="Arrow1Lstart">
      <path
         transform="matrix(0.8,0,0,0.8,10,0)"
         style="fill:#800080;fill-opacity:0;fill-rule:evenodd;stroke:#000000;stroke-width:1pt;stroke-opacity:1"
         d="M 0,0 5,-5 -12.5,0 5,5 0,0 Z"
         id="path8577"
         inkscape:connector-curvature="0" />
    </marker>
    <marker
       inkscape:isstock="true"
       style="overflow:visible"
       id="marker8493"
       refX="0"
       refY="0"
       orient="auto"
       inkscape:stockid="Arrow1Lstart">
      <path
         transform="matrix(0.8,0,0,0.8,10,0)"
         style="fill:#800080;fill-opacity:0;fill-rule:evenodd;stroke:#000000;stroke-width:1pt;stroke-opacity:1"
         d="M 0,0 5,-5 -12.5,0 5,5 0,0 Z"
         id="path8495"
         inkscape:connector-curvature="0" />
    </marker>
    <marker
       inkscape:isstock="true"
       style="overflow:visible"
       id="marker8417"
       refX="0"
       refY="0"
       orient="auto"
       inkscape:stockid="Arrow1Lstart">
      <path
         transform="matrix(0.8,0,0,0.8,10,0)"
         style="fill:#800080;fill-opacity:0;fill-rule:evenodd;stroke:#000000;stroke-width:1pt;stroke-opacity:1"
         d="M 0,0 5,-5 -12.5,0 5,5 0,0 Z"
         id="path8419"
         inkscape:connector-curvature="0" />
    </marker>
    <marker
       inkscape:isstock="true"
       style="overflow:visible"
       id="marker8347"
       refX="0"
       refY="0"
       orient="auto"
       inkscape:stockid="Arrow1Lstart">
      <path
         transform="matrix(0.8,0,0,0.8,10,0)"
         style="fill:#800080;fill-opacity:0;fill-rule:evenodd;stroke:#000000;stroke-width:1pt;stroke-opacity:1"
         d="M 0,0 5,-5 -12.5,0 5,5 0,0 Z"
         id="path8349"
         inkscape:connector-curvature="0" />
    </marker>
    <marker
       inkscape:isstock="true"
       style="overflow:visible"
       id="marker8283"
       refX="0"
       refY="0"
       orient="auto"
       inkscape:stockid="Arrow1Lstart">
      <path
         transform="matrix(0.8,0,0,0.8,10,0)"
         style="fill:#800080;fill-opacity:0;fill-rule:evenodd;stroke:#000000;stroke-width:1pt;stroke-opacity:1"
         d="M 0,0 5,-5 -12.5,0 5,5 0,0 Z"
         id="path8285"
         inkscape:connector-curvature="0" />
    </marker>
    <marker
       inkscape:isstock="true"
       style="overflow:visible"
       id="marker8225"
       refX="0"
       refY="0"
       orient="auto"
       inkscape:stockid="Arrow1Lstart">
      <path
         transform="matrix(0.8,0,0,0.8,10,0)"
         style="fill:#800080;fill-opacity:0;fill-rule:evenodd;stroke:#000000;stroke-width:1pt;stroke-opacity:1"
         d="M 0,0 5,-5 -12.5,0 5,5 0,0 Z"
         id="path8227"
         inkscape:connector-curvature="0" />
    </marker>
    <marker
       inkscape:isstock="true"
       style="overflow:visible"
       id="marker8173"
       refX="0"
       refY="0"
       orient="auto"
       inkscape:stockid="Arrow1Lstart">
      <path
         transform="matrix(0.8,0,0,0.8,10,0)"
         style="fill:#800080;fill-opacity:0;fill-rule:evenodd;stroke:#000000;stroke-width:1pt;stroke-opacity:1"
         d="M 0,0 5,-5 -12.5,0 5,5 0,0 Z"
         id="path8175"
         inkscape:connector-curvature="0" />
    </marker>
    <marker
       inkscape:isstock="true"
       style="overflow:visible"
       id="marker8127"
       refX="0"
       refY="0"
       orient="auto"
       inkscape:stockid="Arrow1Lstart">
      <path
         transform="matrix(0.8,0,0,0.8,10,0)"
         style="fill:#800080;fill-opacity:0;fill-rule:evenodd;stroke:#000000;stroke-width:1pt;stroke-opacity:1"
         d="M 0,0 5,-5 -12.5,0 5,5 0,0 Z"
         id="path8129"
         inkscape:connector-curvature="0" />
    </marker>
    <marker
       inkscape:isstock="true"
       style="overflow:visible"
       id="marker8087"
       refX="0"
       refY="0"
       orient="auto"
       inkscape:stockid="Arrow1Lstart">
      <path
         transform="matrix(0.8,0,0,0.8,10,0)"
         style="fill:#800080;fill-opacity:0;fill-rule:evenodd;stroke:#000000;stroke-width:1pt;stroke-opacity:1"
         d="M 0,0 5,-5 -12.5,0 5,5 0,0 Z"
         id="path8089"
         inkscape:connector-curvature="0" />
    </marker>
    <marker
       inkscape:isstock="true"
       style="overflow:visible"
       id="marker8053"
       refX="0"
       refY="0"
       orient="auto"
       inkscape:stockid="Arrow1Lstart">
      <path
         transform="matrix(0.8,0,0,0.8,10,0)"
         style="fill:#800080;fill-opacity:0;fill-rule:evenodd;stroke:#000000;stroke-width:1pt;stroke-opacity:1"
         d="M 0,0 5,-5 -12.5,0 5,5 0,0 Z"
         id="path8055"
         inkscape:connector-curvature="0" />
    </marker>
    <marker
       inkscape:isstock="true"
       style="overflow:visible"
       id="marker8025"
       refX="0"
       refY="0"
       orient="auto"
       inkscape:stockid="Arrow1Lstart">
      <path
         transform="matrix(0.8,0,0,0.8,10,0)"
         style="fill:#800080;fill-opacity:0;fill-rule:evenodd;stroke:#000000;stroke-width:1pt;stroke-opacity:1"
         d="M 0,0 5,-5 -12.5,0 5,5 0,0 Z"
         id="path8027"
         inkscape:connector-curvature="0" />
    </marker>
    <marker
       inkscape:isstock="true"
       style="overflow:visible"
       id="marker8003"
       refX="0"
       refY="0"
       orient="auto"
       inkscape:stockid="Arrow1Lstart">
      <path
         transform="matrix(0.8,0,0,0.8,10,0)"
         style="fill:#800080;fill-opacity:0;fill-rule:evenodd;stroke:#000000;stroke-width:1pt;stroke-opacity:1"
         d="M 0,0 5,-5 -12.5,0 5,5 0,0 Z"
         id="path8005"
         inkscape:connector-curvature="0" />
    </marker>
    <linearGradient
       id="linearGradient7689"
       osb:paint="solid">
      <stop
         style="stop-color:#000000;stop-opacity:1;"
         offset="0"
         id="stop7691" />
    </linearGradient>
  </defs>
  <sodipodi:namedview
     inkscape:window-maximized="1"
     inkscape:window-y="24"
     inkscape:window-x="65"
     inkscape:window-height="744"
     inkscape:window-width="1301"
     showgrid="false"
     inkscape:current-layer="layer1"
     inkscape:document-units="px"
     inkscape:cy="37.494883"
     inkscape:cx="447.86322"
     inkscape:zoom="1.2493255"
     inkscape:pageshadow="2"
     inkscape:pageopacity="0.0"
     borderopacity="1.0"
     bordercolor="#666666"
     pagecolor="#ffffff"
     id="base"
     fit-margin-top="2.6"
     fit-margin-left="2.6"
     fit-margin-right="2.6"
     fit-margin-bottom="2.6" />
  <metadata
     id="metadata3435">
    <rdf:RDF>
      <cc:Work
         rdf:about="">
        <dc:format>image/svg+xml</dc:format>
        <dc:type
           rdf:resource="http://purl.org/dc/dcmitype/StillImage" />
        <dc:title></dc:title>
      </cc:Work>
    </rdf:RDF>
  </metadata>
  <g
     inkscape:label="Camada 1"
     inkscape:groupmode="layer"
     id="layer1"
     transform="translate(-45.870521,-428.01265)">
    <path
       style="font-style:normal;font-variant:normal;font-weight:normal;font-stretch:normal;font-size:medium;line-height:125%;font-family:Purisa;-inkscape-font-specification:Purisa;text-align:center;letter-spacing:0px;word-spacing:0px;text-anchor:middle;fill:#800080;fill-opacity:0;stroke:#ffffff;stroke-width:1.28495049;stroke-linecap:round;stroke-linejoin:round;stroke-miterlimit:4;stroke-dasharray:none;stroke-dashoffset:0;stroke-opacity:1"
       d="m 63.795806,454.03117 c -15.161435,2.67051 -5.986039,-5.05708 3.356462,-4.03767 6.834629,0.12747 26.139441,-8.05871 26.061346,-0.1422 -11.904052,-0.94555 -18.915137,2.63236 -13.687085,14.99247 1.465706,7.03237 2.525572,36.4012 -2.384244,15.89359 -2.907796,-9.34387 4.428975,-34.32196 -13.346479,-26.70619 z"
       id="path3767"
       inkscape:connector-curvature="0" />
    <path
       style="font-style:normal;font-variant:normal;font-weight:normal;font-stretch:normal;font-size:medium;line-height:125%;font-family:Purisa;-inkscape-font-specification:Purisa;text-align:center;letter-spacing:0px;word-spacing:0px;text-anchor:middle;fill:#800080;fill-opacity:0;stroke:#ffffff;stroke-width:1.28495049;stroke-linecap:round;stroke-linejoin:round;stroke-miterlimit:4;stroke-dasharray:none;stroke-dashoffset:0;stroke-opacity:1"
       d="m 100.14644,468.21098 c -1.632169,-11.04088 5.08106,-11.88424 2.9927,-0.3869 -1.85298,10.17832 3.28215,26.77285 11.40866,10.35708 3.12945,-5.0521 9.78361,-31.43725 8.72019,-12.72149 -2.30312,6.49089 5.05861,34.95214 -3.17459,14.92055 -3.06424,-7.60419 -13.3716,19.4491 -18.41258,4.07404 -1.10167,-5.33354 -1.53176,-10.80263 -1.53438,-16.24328 z"
       id="path3769"
       inkscape:connector-curvature="0" />
    <path
       style="font-style:normal;font-variant:normal;font-weight:normal;font-stretch:normal;font-size:medium;line-height:125%;font-family:Purisa;-inkscape-font-specification:Purisa;text-align:center;letter-spacing:0px;word-spacing:0px;text-anchor:middle;fill:#800080;fill-opacity:0;stroke:#ffffff;stroke-width:1.28495049;stroke-linecap:round;stroke-linejoin:round;stroke-miterlimit:4;stroke-dasharray:none;stroke-dashoffset:0;stroke-opacity:1"
       d="m 140.54137,450.06294 c -3.05086,-7.35317 2.29053,-20.32857 2.52643,-5.17192 -5.72498,11.55293 18.36632,3.78826 3.45237,9.82798 -6.40245,5.46398 0.27279,20.94439 -0.7672,29.68235 -3.66584,10.4608 -3.94197,-16.37 -4.68251,-21.26971 5.45542,-11.93174 -20.81713,-2.56874 -4.12696,-9.36502 l 3.01586,-0.89946 0.58201,-2.80422 0,0 z"
       id="path3771"
       inkscape:connector-curvature="0" />
    <path
       style="font-style:normal;font-variant:normal;font-weight:normal;font-stretch:normal;font-size:medium;line-height:125%;font-family:Purisa;-inkscape-font-specification:Purisa;text-align:center;letter-spacing:0px;word-spacing:0px;text-anchor:middle;fill:#800080;fill-opacity:0;stroke:#ffffff;stroke-width:1.28495049;stroke-linecap:round;stroke-linejoin:round;stroke-miterlimit:4;stroke-dasharray:none;stroke-dashoffset:0;stroke-opacity:1"
       d="m 163.74393,463.07874 c 14.98235,-18.1384 33.12573,4.8626 18.06866,19.49723 -13.53637,15.8456 -32.92866,-6.58394 -18.06866,-19.49723 z m 8.51846,21.74589 c 16.5811,-2.64262 14.28043,-36.02099 -4.02113,-21.00516 -8.24437,5.50456 -8.0001,20.92102 4.02113,21.00516 z"
       id="path3773"
       inkscape:connector-curvature="0" />
    <path
       style="font-style:normal;font-variant:normal;font-weight:normal;font-stretch:normal;font-size:medium;line-height:125%;font-family:Purisa;-inkscape-font-specification:Purisa;text-align:center;letter-spacing:0px;word-spacing:0px;text-anchor:middle;fill:#800080;fill-opacity:0;stroke:#ffffff;stroke-width:1.28495049;stroke-linecap:round;stroke-linejoin:round;stroke-miterlimit:4;stroke-dasharray:none;stroke-dashoffset:0;stroke-opacity:1"
       d="m 211.96536,461.12107 c 1.61858,4.58478 -14.6922,15.112 -11.9576,26.03159 -6.10118,2.57014 -6.22474,-28.33795 -2.11638,-27.51306 -0.0663,10.92146 1.88597,16.36309 8.7301,4.07405 l 2.89681,-1.94443 2.44707,-0.64815 0,0 z"
       id="path3775"
       inkscape:connector-curvature="0" />
    <path
       style="font-style:normal;font-variant:normal;font-weight:normal;font-stretch:normal;font-size:medium;line-height:125%;font-family:Purisa;-inkscape-font-specification:Purisa;text-align:center;letter-spacing:0px;word-spacing:0px;text-anchor:middle;fill:#800080;fill-opacity:0;stroke:#ffffff;stroke-width:1.28495049;stroke-linecap:round;stroke-linejoin:round;stroke-miterlimit:4;stroke-dasharray:none;stroke-dashoffset:0;stroke-opacity:1"
       d="m 223.89071,456.67666 c 4.58574,2.71898 7.10063,28.5033 0.47619,28.62416 -0.33977,-9.36933 -2.47911,-19.50186 -0.47619,-28.62416 z m -0.31745,-12.43379 c 4.25238,-8.34627 6.00773,8.50405 0,0 z"
       id="path3777"
       inkscape:connector-curvature="0" />
    <path
       style="font-style:normal;font-variant:normal;font-weight:normal;font-stretch:normal;font-size:medium;line-height:125%;font-family:Purisa;-inkscape-font-specification:Purisa;text-align:center;letter-spacing:0px;word-spacing:0px;text-anchor:middle;fill:#800080;fill-opacity:0;stroke:#ffffff;stroke-width:1.28495049;stroke-linecap:round;stroke-linejoin:round;stroke-miterlimit:4;stroke-dasharray:none;stroke-dashoffset:0;stroke-opacity:1"
       d="m 251.6865,460.48615 c -5.37537,1.63483 -20.83739,5.91759 -8.14809,-0.42327 16.70374,-11.50617 18.04794,22.2296 12.44701,26.20354 1.66875,-13.85814 -17.506,11.79757 -18.47872,-5.78039 1.7894,-16.50677 26.12524,1.83124 17.03693,-17.24857 l -1.19047,-2.06348 -1.66666,-0.68783 0,0 z m 2.38095,16.40202 c -7.60491,-11.63893 -22.26251,12.26045 -5.9259,6.24335 2.86042,-1.14391 4.18876,-3.97079 5.9259,-6.24335 z"
       id="path3779"
       inkscape:connector-curvature="0" />
    <path
       style="font-style:normal;font-variant:normal;font-weight:normal;font-stretch:normal;font-size:medium;line-height:125%;font-family:Purisa;-inkscape-font-specification:Purisa;text-align:center;letter-spacing:0px;word-spacing:0px;text-anchor:middle;fill:#800080;fill-opacity:0;stroke:#ffffff;stroke-width:1.28495049;stroke-linecap:round;stroke-linejoin:round;stroke-miterlimit:4;stroke-dasharray:none;stroke-dashoffset:0;stroke-opacity:1"
       d="m 268.0166,456.67666 c 4.58573,2.71898 7.10062,28.5033 0.47618,28.62416 -0.33977,-9.36933 -2.47911,-19.50186 -0.47618,-28.62416 z m -0.31746,-12.43379 c 4.25238,-8.34627 6.00775,8.50405 0,0 z"
       id="path3781"
       inkscape:connector-curvature="0" />
    <path
       style="font-style:normal;font-variant:normal;font-weight:normal;font-stretch:normal;font-size:medium;line-height:125%;font-family:Purisa;-inkscape-font-specification:Purisa;text-align:center;letter-spacing:0px;word-spacing:0px;text-anchor:middle;fill:#800080;fill-opacity:0;stroke:#ffffff;stroke-width:1.28495049;stroke-linecap:round;stroke-linejoin:round;stroke-miterlimit:4;stroke-dasharray:none;stroke-dashoffset:0;stroke-opacity:1"
       d="m 286.23573,474.40142 c -19.4894,-7.83399 15.28565,-23.04454 10.74068,-11.58723 -10.51152,-7.24443 -19.73669,11.69934 -3.5185,11.4814 16.14844,8.64584 -13.24757,24.79974 -11.34914,8.1481 9.77533,13.59756 21.73958,-6.49507 4.12696,-8.04227 z"
       id="path3783"
       inkscape:connector-curvature="0" />
    <path
       style="font-style:normal;font-variant:normal;font-weight:normal;font-stretch:normal;font-size:medium;line-height:125%;font-family:Purisa;-inkscape-font-specification:Purisa;text-align:center;letter-spacing:0px;word-spacing:0px;text-anchor:middle;fill:#800080;fill-opacity:0;stroke:#ffffff;stroke-width:1.28495049;stroke-linecap:round;stroke-linejoin:round;stroke-miterlimit:4;stroke-dasharray:none;stroke-dashoffset:0;stroke-opacity:1"
       d="m 369.02209,461.8089 c 1.61107,12.95645 -10.91245,36.1692 -24.48398,21.81203 -10.20695,-12.98572 -1.32778,-31.67843 13.69039,-35.56855 7.80818,-3.36596 11.23008,8.02592 10.79359,13.75652 z m -2.91004,-1.00528 c -4.29422,-20.41835 -29.70084,2.66254 -20.7406,15.82 9.59446,21.74407 21.13084,-5.44382 20.7406,-15.82 z"
       id="path3785"
       inkscape:connector-curvature="0" />
    <path
       style="font-style:normal;font-variant:normal;font-weight:normal;font-stretch:normal;font-size:medium;line-height:125%;font-family:Purisa;-inkscape-font-specification:Purisa;text-align:center;letter-spacing:0px;word-spacing:0px;text-anchor:middle;fill:#800080;fill-opacity:0;stroke:#ffffff;stroke-width:1.28495049;stroke-linecap:round;stroke-linejoin:round;stroke-miterlimit:4;stroke-dasharray:none;stroke-dashoffset:0;stroke-opacity:1"
       d="m 376.18061,462.02054 c 2.38542,-9.75944 31.88813,-9.17069 25.79349,6.4153 0.75636,11.82359 -14.49572,14.71849 -17.9927,17.47363 3.95378,6.4694 0.66232,21.47088 -2.69831,7.45347 -1.19298,-10.18899 -3.53476,-24.95997 -5.10248,-31.3424 z m 7.88355,17.56603 c 16.88058,4.95013 20.27977,-30.50163 -0.54994,-17.85059 -3.84413,2.54303 -0.91521,13.81743 0.54994,17.85059 z"
       id="path3787"
       inkscape:connector-curvature="0" />
    <path
       style="font-style:normal;font-variant:normal;font-weight:normal;font-stretch:normal;font-size:medium;line-height:125%;font-family:Purisa;-inkscape-font-specification:Purisa;text-align:center;letter-spacing:0px;word-spacing:0px;text-anchor:middle;fill:#800080;fill-opacity:0;stroke:#ffffff;stroke-width:1.28495049;stroke-linecap:round;stroke-linejoin:round;stroke-miterlimit:4;stroke-dasharray:none;stroke-dashoffset:0;stroke-opacity:1"
       d="m 436.19594,475.45961 c -5.05872,23.0735 -39.76192,6.51098 -23.89866,-12.2982 11.60053,-17.32269 32.77675,11.77159 7.00062,8.67389 -18.28463,-2.93174 3.48191,23.36741 11.23671,8.12164 1.80675,-1.59157 3.45861,-3.4204 5.66133,-4.49733 z m -8.51846,-12.90998 c -9.47067,-9.8566 -23.64169,14.96424 -4.43119,5.95897 3.01813,-0.43989 10.80397,-1.80177 4.43119,-5.95897 z"
       id="path3789"
       inkscape:connector-curvature="0" />
    <path
       style="font-style:normal;font-variant:normal;font-weight:normal;font-stretch:normal;font-size:medium;line-height:125%;font-family:Purisa;-inkscape-font-specification:Purisa;text-align:center;letter-spacing:0px;word-spacing:0px;text-anchor:middle;fill:#800080;fill-opacity:0;stroke:#ffffff;stroke-width:1.28495049;stroke-linecap:round;stroke-linejoin:round;stroke-miterlimit:4;stroke-dasharray:none;stroke-dashoffset:0;stroke-opacity:1"
       d="m 445.46507,458.21104 c 5.12426,-5.56565 1.99664,30.78911 6.85181,10.38353 2.81326,-14.51447 17.67081,-12.83461 14.48404,2.19245 2.02791,6.65316 -2.6759,25.95978 -2.3148,8.42918 1.43059,-8.18423 -1.78839,-27.66953 -8.90207,-10.84649 -4.91687,5.21499 -5.71365,31.76531 -8.30352,12.41064 -0.32813,-7.54627 -1.47192,-15.02742 -1.81546,-22.56931 z"
       id="path3791"
       inkscape:connector-curvature="0" />
    <path
       style="font-style:normal;font-variant:normal;font-weight:normal;font-stretch:normal;font-size:medium;line-height:125%;font-family:Purisa;-inkscape-font-specification:Purisa;text-align:center;letter-spacing:0px;word-spacing:0px;text-anchor:middle;fill:#800080;fill-opacity:0;stroke:#ffffff;stroke-width:1.28495049;stroke-linecap:round;stroke-linejoin:round;stroke-miterlimit:4;stroke-dasharray:none;stroke-dashoffset:0;stroke-opacity:1"
       d="m 491.55688,468.63426 c -14.68717,-6.28554 17.89951,-10.01458 12.01051,4.99005 3.70026,8.73234 -3.97417,20.3697 -3.59787,5.24128 1.16825,-13.40741 -10.15486,17.21863 -19.73532,7.28178 -11.27141,-13.81062 2.05299,-35.56973 17.51312,-39.57647 14.83123,6.81168 -12.30859,2.08502 -13.70363,14.73536 -10.87474,9.63229 -0.22554,33.10219 10.41,14.96022 2.81931,-3.81254 4.47905,-11.2376 -2.89681,-7.63222 z"
       id="path3793"
       inkscape:connector-curvature="0" />
    <path
       style="font-style:normal;font-variant:normal;font-weight:normal;font-stretch:normal;font-size:medium;line-height:125%;font-family:Purisa;-inkscape-font-specification:Purisa;text-align:center;letter-spacing:0px;word-spacing:0px;text-anchor:middle;fill:#800080;fill-opacity:0;stroke:#ffffff;stroke-width:1.28495049;stroke-linecap:round;stroke-linejoin:round;stroke-miterlimit:4;stroke-dasharray:none;stroke-dashoffset:0;stroke-opacity:1"
       d="m 513.68472,447.04708 c 5.31193,-3.49213 3.42656,21.13663 4.53948,26.52844 -7.66303,21.74467 33.15099,-3.21006 20.672,9.83377 -10.44442,4.33577 -28.46383,8.28552 -24.27233,-9.44438 -0.37943,-8.96962 -0.86917,-17.93866 -0.93915,-26.91783 z"
       id="path3795"
       inkscape:connector-curvature="0" />
  </g>
</svg>
